# xmcd
#
# Track frame offsets: 
#        150
#        17726
#        36102
#        59080
#        74222
#        93399
#        111232
#        129971
#        145151
#        163502
#        186339
#        203462
#
# Disc length: 2849 seconds
#
# Revision: 4
# Processed by: cddbd v1.5.2PL0 Copyright (c) Steve Scherf et al.
# Submitted via: ExactAudioCopy v1.3
#
DISCID=ae0b1f0c
DTITLE=Lady Pank - Lowcy Glow
DYEAR=1998
DGENRE=Rock
TTITLE0=Prawda i serce
TTITLE1=Znowu pada deszcz
TTITLE2=UFO
TTITLE3=Slepy strach
TTITLE4=Nieustraszeni lowcy glow
TTITLE5=Wierny jak pies
TTITLE6=Maly rastaman
TTITLE7=Nie spogladaj nigdy wstecz
TTITLE8=List do B.
TTITLE9=Slowa, slowa, slowa
TTITLE10=Latac moze kazdy
TTITLE11=Dla Alicji (instrumantal)
EXTD=
EXTT0=
EXTT1=
EXTT2=
EXTT3=
EXTT4=
EXTT5=
EXTT6=
EXTT7=
EXTT8=
EXTT9=
EXTT10=
EXTT11=
PLAYORDER=
